<svg xmlns="http://www.w3.org/2000/svg" width="20.499" height="21.253" viewBox="0 0 20.499 21.253">
  <path id="Icon_ionic-ios-paper" data-name="Icon ionic-ios-paper" d="M6.937,4.933V20.61a.671.671,0,0,1-.656.682h0a.671.671,0,0,1-.656-.682V6.491h-.75a1.528,1.528,0,0,0-1.5,1.558V22.07a1.528,1.528,0,0,0,1.5,1.558h16.55a1.478,1.478,0,0,0,1.448-1.5V4.933a1.528,1.528,0,0,0-1.5-1.558l-13.03.1A1.37,1.37,0,0,0,6.937,4.933Zm3.094,1.558h3.937a.671.671,0,0,1,.656.682h0a.671.671,0,0,1-.656.682H10.031a.671.671,0,0,1-.656-.682h0A.671.671,0,0,1,10.031,6.491Zm0,7.79h6.937a.671.671,0,0,1,.656.682h0a.671.671,0,0,1-.656.682H10.031a.671.671,0,0,1-.656-.682h0A.671.671,0,0,1,10.031,14.281Zm9.187,5.258H10.031a.671.671,0,0,1-.656-.682h0a.671.671,0,0,1,.656-.682h9.187a.671.671,0,0,1,.656.682h0A.671.671,0,0,1,19.218,19.539Zm0-7.79H10.031a.671.671,0,0,1-.656-.682h0a.671.671,0,0,1,.656-.682h9.187a.671.671,0,0,1,.656.682h0A.671.671,0,0,1,19.218,11.749Z" transform="translate(-2.875 -2.875)" fill="none" stroke="#fff" stroke-width="1"/>
</svg>
