<svg xmlns="http://www.w3.org/2000/svg" width="27.667" height="25" viewBox="0 0 27.667 25">
  <path id="Icon_material-business-center" data-name="Icon material-business-center" d="M13.667,21.833V20.5H4.347l-.013,5.333A2.657,2.657,0,0,0,7,28.5H25.667a2.657,2.657,0,0,0,2.667-2.667V20.5H19v1.333ZM27,9.833H21.653V7.167L18.987,4.5H13.653L10.987,7.167V9.833H5.667A2.675,2.675,0,0,0,3,12.5v4a2.657,2.657,0,0,0,2.667,2.667h8V16.5H19v2.667h8A2.675,2.675,0,0,0,29.667,16.5v-4A2.675,2.675,0,0,0,27,9.833Zm-8,0H13.667V7.167H19Z" transform="translate(-2.5 -4)" fill="none" stroke="#fff" stroke-width="1"/>
</svg>
