<svg xmlns="http://www.w3.org/2000/svg" width="13.45" height="13.449" viewBox="0 0 13.45 13.449">
  <path id="Icon_ionic-ios-person" data-name="Icon ionic-ios-person" d="M17.542,17.219c-.245-1.081-1.641-1.607-2.124-1.777a15.834,15.834,0,0,0-1.77-.34,1.8,1.8,0,0,1-.819-.377,7.157,7.157,0,0,1-.054-1.675,5.04,5.04,0,0,0,.387-.737,9.511,9.511,0,0,0,.285-1.288s.279,0,.377-.489A4.814,4.814,0,0,0,14.076,9.4c-.02-.391-.234-.381-.234-.381a5.958,5.958,0,0,0,.231-1.743A2.8,2.8,0,0,0,11.028,4.5,2.787,2.787,0,0,0,7.98,7.273a6.214,6.214,0,0,0,.228,1.743s-.214-.01-.234.381a4.814,4.814,0,0,0,.251,1.138c.1.489.377.489.377.489a9.511,9.511,0,0,0,.285,1.288,5.04,5.04,0,0,0,.387.737,7.157,7.157,0,0,1-.054,1.675A1.8,1.8,0,0,1,8.4,15.1a15.834,15.834,0,0,0-1.77.34c-.483.17-1.879.7-2.124,1.777a.272.272,0,0,0,.268.33h12.5A.271.271,0,0,0,17.542,17.219Z" transform="translate(-4.3 -4.3)" fill="none" stroke="#fff" stroke-width="0.4"/>
</svg>
