<svg xmlns="http://www.w3.org/2000/svg" width="23.307" height="17.051" viewBox="0 0 23.307 17.051">
  <path id="Icon_awesome-sort-amount-down" data-name="Icon awesome-sort-amount-down" d="M13.232,15.964H10.446a.643.643,0,0,0-.7.571v1.143a.643.643,0,0,0,.7.571h2.786a.643.643,0,0,0,.7-.571V16.536A.643.643,0,0,0,13.232,15.964ZM7.661,13.679H5.571V2.821a.643.643,0,0,0-.7-.571H3.482a.643.643,0,0,0-.7.571V13.679H.7c-.618,0-.93.616-.491.975l3.482,3.429a.808.808,0,0,0,.985,0l3.482-3.429C8.59,14.3,8.28,13.679,7.661,13.679ZM18.8,6.821H10.446a.643.643,0,0,0-.7.571V8.536a.643.643,0,0,0,.7.571H18.8a.643.643,0,0,0,.7-.571V7.393A.643.643,0,0,0,18.8,6.821Zm-2.786,4.571H10.446a.643.643,0,0,0-.7.571v1.143a.643.643,0,0,0,.7.571h5.571a.643.643,0,0,0,.7-.571V11.964A.643.643,0,0,0,16.018,11.393ZM21.589,2.25H10.446a.643.643,0,0,0-.7.571V3.964a.643.643,0,0,0,.7.571H21.589a.643.643,0,0,0,.7-.571V2.821A.643.643,0,0,0,21.589,2.25Z" transform="translate(0.521 -1.75)" fill="none" stroke="#fff" stroke-width="1"/>
</svg>
