<svg xmlns="http://www.w3.org/2000/svg" width="13.456" height="13.957" viewBox="0 0 13.456 13.957">
  <path id="Icon_ionic-ios-paper" data-name ="Icon ionic-ios-paper" d="M5.742,4.41V14.827a.446.446,0,0,1-.436.453h0a.446.446,0,0,1-.436-.453V5.445h-.5a1.015,1.015,0,0,0-1,1.035V15.8a1.015,1.015,0,0,0,1,1.035h11a.982.982,0,0,0,.962-1V4.41a1.015,1.015,0,0,0-1-1.035L6.676,3.44A.91.91,0,0,0,5.742,4.41ZM7.8,5.445h2.616a.446.446,0,0,1,.436.453h0a.446.446,0,0,1-.436.453H7.8A.446.446,0,0,1,7.361,5.9h0A.446.446,0,0,1,7.8,5.445Zm0,5.176h4.609a.446.446,0,0,1,.436.453h0a.446.446,0,0,1-.436.453H7.8a.446.446,0,0,1-.436-.453h0A.446.446,0,0,1,7.8,10.621Zm6.1,3.494H7.8a.446.446,0,0,1-.436-.453h0a.446.446,0,0,1,.436-.453h6.1a.446.446,0,0,1,.436.453h0A.446.446,0,0,1,13.9,14.115Zm0-5.176H7.8a.446.446,0,0,1-.436-.453h0A.446.446,0,0,1,7.8,8.033h6.1a.446.446,0,0,1,.436.453h0A.446.446,0,0,1,13.9,8.939Z" transform="translate(-3.125 -3.125)" fill="none" stroke="#fff" stroke-width="0.5"/>
</svg>
