<svg xmlns="http://www.w3.org/2000/svg" width="11.9" height="12.183" viewBox="0 0 11.9 12.183">
  <path id="Icon_material-rate-review" data-name="Icon material-rate-review" d="M13.35,3H4.15A1.148,1.148,0,0,0,3.006,4.15L3,14.5l2.3-2.3h8.05a1.153,1.153,0,0,0,1.15-1.15V4.15A1.153,1.153,0,0,0,13.35,3ZM5.3,9.9V8.48L9.256,4.524a.285.285,0,0,1,.408,0l1.018,1.018a.285.285,0,0,1,0,.408L6.72,9.9Zm6.9,0H7.888l1.15-1.15H12.2Z" transform="translate(-2.8 -2.8)" fill="none" stroke="#fff" stroke-width="0.4"/>
</svg>
