<svg xmlns="http://www.w3.org/2000/svg" width="13.999" height="14" viewBox="0 0 13.999 14">
  <path id="Icon_awesome-sort-alpha-down" data-name="Icon awesome-sort-alpha-down" d="M5.5,12.25H4V2.75a.5.5,0,0,0-.5-.5h-1a.5.5,0,0,0-.5.5v9.5H.5a.5.5,0,0,0-.353.853l2.5,3a.5.5,0,0,0,.707,0l2.5-3A.5.5,0,0,0,5.5,12.25Zm7.5-2H9a.5.5,0,0,0-.5.5v1a.5.5,0,0,0,.5.5h1.75l-1.914,2.2A1,1,0,0,0,8.5,15.2v.551a.5.5,0,0,0,.5.5h4a.5.5,0,0,0,.5-.5v-1a.5.5,0,0,0-.5-.5H11.25l1.914-2.2A1,1,0,0,0,13.5,11.3V10.75A.5.5,0,0,0,13,10.25Zm.971-2.668-1.852-5a.5.5,0,0,0-.471-.332H10.352a.5.5,0,0,0-.471.332l-1.852,5A.5.5,0,0,0,8.5,8.25h.776A.5.5,0,0,0,9.752,7.9l.138-.4h2.219l.138.4a.5.5,0,0,0,.477.346H13.5a.5.5,0,0,0,.471-.668ZM10.488,5.75,11,4.25l.512,1.5Z" transform="translate(0 -2.25)" fill="#fff"/>
</svg>
