<svg xmlns="http://www.w3.org/2000/svg" width="17.349" height="10.549" viewBox="0 0 17.349 10.549">
  <g id="Group_277" data-name="Group 277" transform="translate(0.553 0.5)">
    <path id="Path_150" data-name="Path 150" d="M10.367,7.875c-2.916,0-5.215,1.678-7.964,4.42A.492.492,0,0,0,2.4,13c2.354,2.377,4.428,4.423,7.967,4.423,3.5,0,6.118-2.576,7.982-4.443a.487.487,0,0,0,.018-.686C16.466,10.189,13.837,7.875,10.367,7.875Zm.16,7.755a3.134,3.134,0,0,1-3.412-3.12,3.141,3.141,0,0,1,3.108-2.841,3.134,3.134,0,0,1,3.412,3.12A3.141,3.141,0,0,1,10.526,15.63Z" transform="translate(-2.252 -7.875)" fill="none" stroke="#fff" stroke-width="1"/>
    <path id="Path_151" data-name="Path 151" d="M16.032,14.172a1.859,1.859,0,0,1,.123-.668c-.04,0-.079,0-.123,0a2.531,2.531,0,1,0,2.532,2.532c0-.051,0-.1,0-.154a1.754,1.754,0,0,1-.72.154A1.836,1.836,0,0,1,16.032,14.172Z" transform="translate(-7.91 -11.257)" fill="none" stroke="#fff" stroke-width="1"/>
  </g>
</svg>
